<svg width="150" height="150" viewBox="0 0 150 150" fill="none" xmlns="http://www.w3.org/2000/svg">
<path d="M81.2 118.515C33.5375 118.515 6.366 85.9029 5.25 31.5599H29.2208C29.988 71.4104 47.5417 88.2744 61.484 91.7542V31.5522H83.99V65.9079C97.7152 64.4354 112.208 48.7649 117.083 31.4824H139.527C137.697 40.4283 134.043 48.9008 128.791 56.3708C123.54 63.8408 116.805 70.1479 109.007 74.8979C117.71 79.2278 125.396 85.3541 131.557 92.8726C137.718 100.391 142.215 109.131 144.75 118.515H120.012C114.719 102 101.482 89.1812 83.99 87.4374V118.515H81.2Z" fill="white"/>
</svg>
